<svg width="61" height="60" viewBox="0 0 61 60" fill="none" xmlns="http://www.w3.org/2000/svg">
<g id="Frame 334945">
<rect x="0.5" width="60" height="60" rx="15" fill="white"/>
<g id="Vector 1">
<path d="M27.041 41.4634L28.7623 45L27.3852 41.4634H27.041Z" fill="#C4C4C4"/>
<path d="M27.041 41.4634L28.7623 45L27.3852 41.4634H27.041Z" fill="black"/>
<path d="M25.6639 45L27.041 41.4634H26.6967L25.6639 45Z" fill="black"/>
<path d="M20.5 16V14.5H18.9774L19.0002 16.0225L20.5 16ZM41.5 16H43V14.5H41.5V16ZM41.5 40.7561V42.2561H43V40.7561H41.5ZM24.6311 41.4634H23.1311V42.9634H24.6311V41.4634ZM29.4508 41.4634V42.9634H30.9508V41.4634H29.4508ZM29.4508 37.2195H30.9508V35.7195H29.4508V37.2195ZM24.6311 37.2195V35.7195H23.1311V37.2195H24.6311ZM25.6639 45L24.2241 44.5795C23.999 45.3503 24.4208 46.1617 25.1811 46.4202C25.9414 46.6786 26.7704 46.2925 27.0617 45.5443L25.6639 45ZM28.7623 45L27.4136 45.6564C27.7657 46.3799 28.6259 46.6967 29.3631 46.3744C30.1004 46.0521 30.452 45.2055 30.1601 44.4557L28.7623 45ZM21.9724 41.0427C22.0336 40.7284 22.0623 40.2019 22.0827 39.6568C22.1052 39.0593 22.1212 38.2864 22.1322 37.3871C22.1542 35.5864 22.1564 33.245 22.1463 30.7151C22.1262 25.6534 22.0573 19.8122 21.9998 15.9775L19.0002 16.0225C19.0575 19.8504 19.1263 25.6799 19.1463 30.727C19.1564 33.2514 19.1542 35.5739 19.1324 37.3504C19.1216 38.2396 19.1059 38.9836 19.0848 39.5442C19.0743 39.825 19.0627 40.0511 19.0505 40.222C19.0369 40.4122 19.0261 40.4775 19.0276 40.4694L21.9724 41.0427ZM20.5 17.5H41.5V14.5H20.5V17.5ZM40 16V40.7561H43V16H40ZM41.5 39.2561H32.8934V42.2561H41.5V39.2561ZM24.6311 33.061H32.2049V30.061H24.6311V33.061ZM24.6311 25.9878H37.7131V22.9878H24.6311V25.9878ZM30.9508 41.4634V37.2195H27.9508V41.4634H30.9508ZM29.4508 35.7195H24.6311V38.7195H29.4508V35.7195ZM23.1311 37.2195V41.4634H26.1311V37.2195H23.1311ZM25.6432 40.9192L24.2662 44.4557L27.0617 45.5443L28.4388 42.0077L25.6432 40.9192ZM25.6923 42.1199L27.4136 45.6564L30.111 44.3436L28.3897 40.807L25.6923 42.1199ZM27.041 42.9634H27.3852V39.9634H27.041V42.9634ZM27.3852 42.9634H29.4508V39.9634H27.3852V42.9634ZM30.1601 44.4557L28.783 40.9192L25.9875 42.0077L27.3645 45.5443L30.1601 44.4557ZM24.6311 42.9634H26.6967V39.9634H24.6311V42.9634ZM26.6967 42.9634H27.041V39.9634H26.6967V42.9634ZM25.2569 41.0429L24.2241 44.5795L27.1038 45.4205L28.1366 41.8839L25.2569 41.0429Z" fill="#DD0A34"/>
</g>
</g>
</svg>
