<svg width="61" height="60" viewBox="0 0 61 60" fill="none" xmlns="http://www.w3.org/2000/svg">
<g id="Frame 334949">
<rect x="0.5" width="60" height="60" rx="15" fill="white"/>
<path id="Vector 6" d="M17.5 39.4541H21.3361L28.1557 44.9999L43.5 38.6009L40.9426 33.0551L33.6967 34.6316M17.5 29.2157H24.3197L31.1393 35.1881L33.6967 34.6316M25.1721 35.6147L29.0082 38.6009L33.6967 34.6316M40.9426 18.5506C40.9426 20.6013 39.6997 23.6048 33.2705 27.5093C33.2705 27.5093 25.3573 21.9784 25.1721 18.5506C24.987 15.1229 27.5 13.2035 30.0574 13.6301C32.6148 14.0567 33.2705 15.4999 33.2705 15.4999C33.2705 15.4999 33.9672 13.9999 36.5 13.9999C39.0328 13.9999 40.9426 16.4999 40.9426 18.5506Z" stroke="#DD0A34" stroke-width="3"/>
</g>
</svg>
